# xmcd
#
# Track frame offsets:
#	150
#	6759
#	11260
#	17632
#	22863
#	26567
#	35270
#	39492
#	46731
#	47799
#	54341
#	67725
#	73943
#	79050
#	88530
#	96323
#	107734
#
# Disc length: 1772 seconds
#
# Revision: 0
# Processed by: cddbd v1.5.2PL0 Copyright (c) Steve Scherf et al.
# Submitted via: audiograbber 1.83.01
#
DISCID=c106ea11
DTITLE=Abjured - Life You Know..?!
DYEAR=2011
DGENRE=Grindcore
TTITLE0=Destroy
TTITLE1=Money Bill
TTITLE2=Explosion Into Chaos
TTITLE3=No Joke
TTITLE4=Live Your Lie
TTITLE5=Another Virus
TTITLE6=Society
TTITLE7=Dead Words
TTITLE8=System Failed
TTITLE9=Puppets
TTITLE10=Abjured
TTITLE11=Control Denied
TTITLE12=Stoned
TTITLE13=Traitor
TTITLE14=Cohesion
TTITLE15=Machine Trauma
TTITLE16=Gone
EXTD=
EXTT0=
EXTT1=
EXTT2=
EXTT3=
EXTT4=
EXTT5=
EXTT6=
EXTT7=
EXTT8=
EXTT9=
EXTT10=
EXTT11=
EXTT12=
EXTT13=
EXTT14=
EXTT15=
EXTT16=
PLAYORDER=
